<?xml version="1.0" standalone="no"?>
<!DOCTYPE svg PUBLIC "-//W3C//DTD SVG 20010904//EN"
 "http://www.w3.org/TR/2001/REC-SVG-20010904/DTD/svg10.dtd">
<svg version="1.0" xmlns="http://www.w3.org/2000/svg"
 width="300.000000pt" height="240.000000pt" viewBox="0 0 300.000000 240.000000"
 preserveAspectRatio="xMidYMid meet">
<metadata>
Created by potrace 1.10, written by Peter Selinger 2001-2011
</metadata>
<g transform="translate(0.000000,240.000000) scale(0.100000,-0.100000)"
fill="#000000" stroke="none">
<path d="M915 2198 c-65 -68 -249 -256 -408 -418 -159 -162 -294 -305 -299
-317 -6 -12 -8 -32 -5 -45 4 -13 197 -213 429 -445 368 -367 427 -423 453
-423 26 0 57 27 215 187 l184 188 186 -187 c169 -172 189 -188 220 -188 31 0
49 15 194 163 89 89 277 279 418 422 250 252 258 262 258 300 0 39 -9 48 -423
462 -395 396 -424 423 -457 423 -32 0 -51 -15 -220 -185 l-185 -185 -185 185
c-236 235 -210 231 -375 63z m199 78 c15 -13 26 -28 26 -35 0 -6 5 -11 10 -11
17 0 303 -288 296 -298 -3 -5 4 -8 16 -7 20 1 80 57 273 255 101 104 131 125
162 113 10 -3 204 -192 431 -419 321 -322 412 -418 412 -438 0 -19 -65 -90
-277 -307 -281 -286 -520 -526 -546 -548 -27 -22 -67 8 -242 183 -131 131
-170 177 -162 185 7 7 -2 5 -20 -4 -17 -9 -113 -97 -213 -196 -155 -154 -184
-179 -203 -173 -30 10 -66 37 -67 50 0 7 -12 20 -27 30 -33 21 -485 471 -463
460 8 -4 4 1 -10 11 -14 10 -83 75 -153 144 -114 112 -129 131 -130 161 -1 24
7 42 23 59 12 13 19 17 15 9 -6 -10 -1 -8 13 4 12 11 22 23 22 27 0 11 82 89
94 89 5 0 7 2 4 5 -3 3 38 50 91 104 53 54 113 117 134 140 21 22 43 41 48 41
6 0 8 4 5 8 -2 4 9 17 25 27 16 11 29 23 29 27 0 13 47 58 60 58 7 0 11 2 8 5
-7 7 231 250 252 258 27 10 39 7 64 -17z"/>
<path d="M1721 2002 c-117 -117 -148 -154 -148 -175 0 -15 3 -25 6 -22 9 5 97
-87 93 -97 -1 -4 4 -8 10 -8 17 0 228 -213 228 -229 0 -7 4 -9 10 -6 5 3 9 -9
8 -29 -1 -19 -5 -33 -10 -30 -4 3 -8 -1 -8 -9 0 -8 -24 -36 -53 -63 -29 -27
-63 -62 -75 -78 -12 -16 -22 -25 -22 -21 0 4 -9 -4 -21 -19 -11 -14 -26 -23
-32 -19 -6 4 -8 0 -4 -10 4 -11 1 -17 -9 -17 -8 0 -13 -4 -10 -8 3 -5 -8 -16
-25 -26 -16 -9 -29 -22 -29 -27 0 -13 -26 -40 -32 -34 -2 3 -11 -11 -20 -31
-10 -22 -12 -34 -5 -31 7 2 77 -61 156 -140 79 -78 151 -143 160 -143 19 0 40
21 419 402 155 157 282 293 282 302 0 18 -693 716 -710 716 -6 0 -77 -67 -159
-148z m507 -222 l344 -347 -107 -109 c-59 -60 -213 -215 -341 -344 l-234 -236
-147 148 -148 148 178 178 c234 236 234 198 -2 436 l-180 181 142 147 c78 81
144 146 147 146 3 -1 160 -157 348 -348z"/>
<path d="M924 2013 c-71 -71 -157 -158 -192 -195 -34 -37 -62 -65 -62 -62 0 2
-15 -12 -33 -33 -17 -21 -82 -88 -143 -149 -61 -61 -114 -119 -117 -128 -8
-21 12 -43 270 -299 100 -99 180 -184 177 -189 -3 -4 0 -8 6 -8 6 0 60 -49
121 -110 67 -66 119 -110 131 -110 11 0 33 14 48 30 15 17 33 30 40 30 6 0 9
4 6 8 -6 10 137 152 153 152 7 0 10 4 7 8 -3 5 8 22 24 37 17 16 30 34 30 41
0 6 24 32 53 58 114 101 134 118 150 128 10 5 15 13 12 19 -4 5 1 9 9 9 9 0
16 6 16 13 0 8 9 22 20 32 11 10 20 15 20 10 0 -4 7 -2 15 5 8 6 13 15 12 18
-1 4 17 27 41 51 23 24 42 49 42 56 0 6 -54 65 -119 130 -66 66 -117 124 -114
130 4 5 2 7 -2 2 -5 -4 -17 0 -27 10 -18 16 -18 17 9 47 26 28 26 29 3 11 -14
-11 -28 -24 -31 -29 -4 -5 -11 -6 -17 -2 -6 3 -18 -1 -26 -10 -9 -8 -16 -13
-16 -10 0 3 -17 -13 -37 -35 -21 -23 -80 -84 -130 -136 -51 -52 -93 -100 -93
-107 0 -8 65 -79 143 -159 l144 -145 -39 -39 -39 -39 -174 174 c-96 96 -177
183 -180 193 -10 31 -7 34 285 335 33 34 60 70 60 80 0 10 12 32 28 48 l27 31
-32 -29 -33 -29 -50 52 c-27 29 -50 57 -50 62 0 6 -4 8 -8 5 -5 -3 -46 33 -91
79 -46 47 -91 85 -101 85 -9 0 -75 -57 -146 -127z m291 -33 l150 -149 -140
-142 c-77 -78 -157 -162 -177 -186 -64 -75 -64 -77 145 -282 l182 -180 -147
-148 -147 -149 -346 346 -346 346 319 325 c175 178 327 334 337 347 11 12 20
22 20 22 0 0 68 -67 150 -150z m405 -404 l145 -144 -140 -141 -140 -141 -142
142 -142 143 136 143 c74 78 136 142 137 142 1 0 66 -65 146 -144z"/>
<path d="M1539 983 c-13 -16 -12 -17 4 -4 16 13 21 21 13 21 -2 0 -10 -8 -17
-17z"/>
<path d="M2871 874 c0 -11 3 -14 6 -6 3 7 2 16 -1 19 -3 4 -6 -2 -5 -13z"/>
<path d="M395 280 l0 -150 28 0 c18 0 27 5 27 17 0 15 1 15 18 0 29 -27 87
-22 123 11 24 21 32 38 36 75 5 43 3 49 -30 82 -28 28 -43 35 -73 35 -21 0
-46 -7 -56 -17 -18 -16 -18 -15 -12 40 l7 57 -34 0 -34 0 0 -150z m47 32 c9
-17 9 -25 0 -34 -15 -15 -15 -53 -2 -79 8 -15 7 -23 -4 -35 -14 -13 -15 -2
-14 103 1 65 3 107 5 93 2 -14 9 -35 15 -48z m110 -29 c22 -20 23 -61 1 -85
-20 -22 -66 -24 -83 -2 -17 20 -17 68 0 88 16 21 59 20 82 -1z m42 1 c5 -14 4
-15 -9 -4 -17 14 -19 20 -6 20 5 0 12 -7 15 -16z m10 -62 c-4 -15 -14 -34 -23
-42 -12 -11 -13 -11 -3 0 6 7 12 29 12 48 0 20 4 31 10 27 6 -3 7 -18 4 -33z"/>
<path d="M2020 280 l0 -150 30 0 30 0 0 150 0 150 -30 0 -30 0 0 -150z m31 -1
c-1 -67 -3 -125 -6 -127 -3 -3 -5 55 -5 128 0 73 3 131 6 128 3 -4 5 -61 5
-129z"/>
<path d="M724 340 c-78 -31 -85 -145 -12 -190 50 -30 100 -26 143 11 31 27 35
37 35 78 -1 49 -10 67 -50 94 -26 18 -81 21 -116 7z m135 -69 c-2 -6 -10 2
-17 17 -11 25 -11 25 4 10 9 -9 15 -21 13 -27z m-38 8 c11 -11 18 -27 15 -36
-3 -8 -6 -18 -6 -23 0 -16 -31 -40 -52 -40 -31 0 -58 29 -58 61 0 56 60 79
101 38z m-111 7 c0 -3 -4 -8 -10 -11 -5 -3 -10 -1 -10 4 0 6 5 11 10 11 6 0
10 -2 10 -4z m-10 -46 c0 -5 -4 -10 -10 -10 -5 0 -10 5 -10 10 0 6 5 10 10 10
6 0 10 -4 10 -10z m152 -52 c-8 -8 -9 -4 -5 13 4 13 8 18 11 10 2 -7 -1 -18
-6 -23z"/>
<path d="M969 332 c-12 -8 -27 -29 -35 -48 -43 -102 75 -194 172 -135 63 39
70 128 12 176 -25 21 -39 25 -80 24 -27 -2 -58 -9 -69 -17z m113 -49 c39 -35
11 -103 -42 -103 -34 0 -53 22 -53 60 0 16 5 36 13 44 16 21 59 20 82 -1z
m-114 -18 c-3 -3 -9 2 -12 12 -6 14 -5 15 5 6 7 -7 10 -15 7 -18z m142 -85 c0
-5 -5 -10 -11 -10 -5 0 -7 5 -4 10 3 6 8 10 11 10 2 0 4 -4 4 -10z"/>
<path d="M1205 240 l0 -110 32 0 33 0 -6 58 c-6 66 10 105 44 110 41 6 52 -14
52 -94 l0 -74 30 0 30 0 0 85 c0 78 -2 88 -25 110 -29 30 -89 34 -117 8 -17
-15 -18 -15 -18 0 0 12 -9 17 -27 17 l-28 0 0 -110z m185 58 c0 -13 -23 -5
-28 10 -2 7 2 10 12 6 9 -3 16 -11 16 -16z m-135 -5 c-4 -10 -11 -43 -15 -73
l-7 -55 -2 73 c-1 60 2 72 15 72 11 0 14 -5 9 -17z m142 -105 c-2 -18 -4 -6
-4 27 0 33 2 48 4 33 2 -15 2 -42 0 -60z"/>
<path d="M1519 335 c-34 -18 -53 -65 -45 -109 12 -63 89 -101 146 -73 28 14
30 14 30 -2 0 -32 -35 -54 -77 -49 -21 3 -46 8 -55 12 -11 5 -20 1 -28 -14
-10 -18 -7 -22 24 -35 76 -32 157 -10 182 50 9 22 14 71 14 135 l0 100 -30 0
c-21 0 -30 -5 -30 -17 0 -15 -1 -15 -18 0 -23 21 -78 21 -113 2z m164 -101
c-1 -53 -4 -99 -7 -102 -3 -3 -6 4 -6 16 0 11 -7 27 -15 35 -13 13 -13 16 0
21 17 6 21 71 5 81 -11 7 5 45 18 45 4 0 6 -43 5 -96z m-156 58 c-10 -10 -17
-31 -17 -46 0 -17 -4 -25 -11 -20 -20 12 10 83 35 84 5 0 2 -8 -7 -18z m107
-11 c24 -26 17 -62 -16 -81 -25 -13 -31 -13 -55 0 -33 18 -42 60 -18 84 22 22
68 20 89 -3z m36 -175 c0 -3 -4 -8 -10 -11 -5 -3 -10 -1 -10 4 0 6 5 11 10 11
6 0 10 -2 10 -4z m-72 -33 c-10 -2 -26 -2 -35 0 -10 3 -2 5 17 5 19 0 27 -2
18 -5z"/>
<path d="M1788 338 c-23 -8 -26 -12 -16 -27 9 -14 20 -17 54 -13 41 4 74 -8
74 -28 0 -4 -25 -10 -56 -12 -31 -3 -62 -11 -71 -20 -23 -24 -19 -69 7 -90 27
-22 83 -24 104 -3 19 19 30 19 22 0 -4 -11 2 -15 24 -15 l30 0 0 81 c0 76 -2
82 -29 110 -24 23 -38 29 -73 28 -24 0 -55 -5 -70 -11z m139 -53 c0 -8 -4 -15
-9 -15 -10 0 -11 14 -1 23 9 10 10 9 10 -8z m13 -75 c0 -41 -3 -48 -16 -43 -9
3 -12 9 -7 12 13 9 17 54 4 47 -6 -4 -11 -1 -11 8 0 12 8 19 28 25 1 1 2 -21
2 -49z m-40 0 c0 -25 -35 -43 -67 -35 -39 9 -26 39 22 46 22 3 41 7 43 8 1 0
2 -8 2 -19z"/>
<path d="M2182 337 c-70 -40 -76 -147 -9 -187 90 -55 201 15 183 114 -13 70
-107 110 -174 73z m100 -54 c39 -35 11 -103 -42 -103 -34 0 -53 22 -53 60 0
16 5 36 13 44 16 21 59 20 82 -1z m-116 -43 c0 -27 -3 -50 -8 -50 -10 0 -11
84 -1 93 3 4 7 7 8 7 1 0 1 -22 1 -50z m167 23 c5 -26 2 -42 -7 -32 -9 11 -15
59 -7 59 5 0 11 -12 14 -27z m-3 -63 c0 -5 -4 -10 -10 -10 -5 0 -10 5 -10 10
0 6 5 10 10 10 6 0 10 -4 10 -10z"/>
<path d="M2454 340 c-36 -14 -64 -59 -64 -101 0 -99 130 -146 203 -73 49 49
33 141 -30 173 -25 13 -79 13 -109 1z m-13 -58 c-6 -12 -11 -31 -11 -43 0 -16
-3 -20 -10 -13 -7 7 -5 23 5 48 9 21 19 36 21 33 3 -3 1 -14 -5 -25z m103 5
c24 -18 25 -76 1 -93 -41 -30 -95 -4 -95 47 0 51 52 76 94 46z m52 -11 c3 -13
4 -35 1 -47 -3 -17 -5 -14 -6 12 0 19 -6 40 -13 47 -9 9 -9 12 0 12 6 0 14
-11 18 -24z m-153 -87 c4 -16 3 -18 -9 -8 -7 6 -11 15 -8 20 8 13 11 11 17
-12z m137 -4 c-7 -8 -17 -15 -22 -15 -11 0 14 29 26 30 5 0 3 -7 -4 -15z"/>
</g>
</svg>
